<?xml version="1.0" standalone="no"?>
<!DOCTYPE svg PUBLIC "-//W3C//DTD SVG 20010904//EN"
 "http://www.w3.org/TR/2001/REC-SVG-20010904/DTD/svg10.dtd">
<svg version="1.0" xmlns="http://www.w3.org/2000/svg"
 width="225.000000pt" height="225.000000pt" viewBox="0 0 225.000000 225.000000"
 preserveAspectRatio="xMidYMid meet">

<g transform="translate(0.000000,225.000000) scale(0.100000,-0.100000)"
fill="#000000" stroke="none">
<path d="M187 1963 c-4 -3 -7 -339 -7 -745 l0 -738 175 0 175 0 0 -105 0 -105
613 2 612 3 3 435 2 434 170 172 c213 215 211 205 86 333 -79 79 -88 86 -125
86 -34 0 -47 -7 -85 -44 l-45 -44 -3 54 -3 54 -177 3 -178 2 0 105 0 105 -603
0 c-332 0 -607 -3 -610 -7z m1183 -113 l0 -90 -417 -2 -417 -3 -6 -25 c-5 -23
-11 -25 -83 -30 -54 -3 -81 -10 -87 -20 -13 -20 -13 -206 0 -229 7 -14 27 -20
90 -25 l80 -7 0 -35 0 -34 -74 0 c-99 0 -106 -9 -106 -142 0 -127 9 -138 110
-138 l70 0 0 -45 0 -45 -72 0 c-102 0 -108 -7 -108 -132 0 -55 4 -107 10 -117
7 -14 27 -20 90 -25 l80 -7 0 -95 0 -94 -160 0 -160 0 0 715 0 715 580 0 580
0 0 -90z m350 -188 l0 -57 -330 -330 -330 -330 -31 -87 c-31 -85 -41 -99 -54
-78 -4 6 -53 10 -115 10 -138 0 -140 -2 -140 -140 0 -137 3 -140 137 -140 115
0 143 11 143 55 0 13 8 25 18 28 9 3 78 26 152 52 l135 47 208 206 207 207 0
-403 0 -402 -580 0 -580 0 0 710 0 710 580 0 580 0 0 -58z m273 -41 c42 -43
77 -86 77 -95 0 -9 -16 -33 -35 -54 l-34 -37 -100 100 -101 99 32 33 c50 52
72 46 161 -46z m-1463 -56 l0 -105 -70 0 -70 0 0 105 0 105 70 0 70 0 0 -105z
m1410 -190 l-35 -35 -100 100 -99 100 34 35 34 35 101 -100 100 -100 -35 -35z
m-190 70 l65 -65 -210 -210 c-167 -167 -207 -212 -197 -222 10 -10 55 30 222
197 210 210 210 210 230 190 20 -20 20 -20 -278 -317 l-297 -297 -100 -35
-100 -35 -35 35 -35 34 33 98 34 97 296 298 c163 163 299 297 302 297 3 0 35
-29 70 -65z m-1222 -232 l3 -103 -71 0 -70 0 0 105 0 106 68 -3 67 -3 3 -102z
m2 -368 l0 -105 -70 0 -70 0 0 105 0 105 70 0 70 0 0 -105z m424 -91 c22 -8
20 -49 -4 -118 l-19 -57 20 -8 c18 -6 19 -9 6 -19 -10 -9 -44 -12 -104 -10
l-88 3 -3 94 c-1 52 -1 100 2 108 4 9 29 13 90 13 46 0 91 -3 100 -6z"/>
<path d="M737 1472 c-14 -15 -17 -40 -17 -118 0 -137 1 -138 129 -142 147 -5
151 -2 151 134 0 148 3 144 -134 144 -97 0 -115 -3 -129 -18z m231 -44 c3 -21
0 -26 -15 -22 -12 3 -33 -10 -62 -40 l-45 -46 -23 22 c-18 17 -26 19 -35 10
-9 -9 -5 -19 17 -42 16 -16 33 -30 39 -30 6 0 37 26 69 58 l58 57 -3 -70 -3
-70 -102 -3 -103 -3 0 106 0 106 103 -3 102 -3 3 -27z"/>
<path d="M737 1122 c-14 -15 -17 -40 -17 -120 0 -137 4 -142 138 -142 140 0
142 2 142 139 0 141 0 141 -142 141 -89 0 -107 -3 -121 -18z m221 -24 c17 -17
16 -51 -2 -45 -7 3 -32 -14 -57 -39 -47 -47 -60 -52 -79 -29 -7 8 -19 15 -26
15 -26 0 -14 -29 22 -56 l35 -27 60 59 60 59 -3 -65 -3 -65 -102 -3 -103 -3 0
99 c0 54 3 102 7 105 12 12 178 8 191 -5z"/>
<path d="M1270 835 c-54 -55 -61 -65 -45 -71 13 -6 32 7 77 54 52 53 65 82 40
82 -4 0 -36 -29 -72 -65z"/>
</g>
</svg>
